<?xml version="1.0" standalone="no"?>
<!DOCTYPE svg PUBLIC "-//W3C//DTD SVG 20010904//EN"
 "http://www.w3.org/TR/2001/REC-SVG-20010904/DTD/svg10.dtd">
<svg version="1.0" xmlns="http://www.w3.org/2000/svg"
 width="2388.000000pt" height="2240.000000pt" viewBox="0 0 2388.000000 2240.000000"
 preserveAspectRatio="xMidYMid meet">

<g transform="translate(0.000000,2240.000000) scale(0.100000,-0.100000)"
fill="#000000" stroke="none">
<path d="M7080 10523 c0 -538 3 -2055 7 -3370 l6 -2393 642 0 642 0 6 2483 c4
1365 7 2881 7 3370 l0 887 -655 0 -655 0 0 -977z"/>
<path d="M10685 9570 c-134 -20 -363 -72 -463 -105 -135 -45 -418 -184 -540
-266 -195 -130 -390 -351 -482 -546 -80 -169 -162 -468 -164 -598 l-1 -80 40
-14 c33 -12 138 -15 568 -19 l527 -4 52 109 c105 221 206 336 371 417 120 59
230 86 389 93 358 16 630 -100 731 -314 31 -65 32 -73 32 -188 0 -144 -20
-205 -92 -285 -92 -102 -166 -125 -902 -275 -999 -204 -1318 -345 -1575 -695
-157 -213 -200 -402 -199 -875 0 -342 6 -374 103 -570 129 -261 305 -417 595
-526 230 -87 444 -129 692 -136 525 -16 977 123 1328 408 99 81 134 104 143
95 4 -4 8 -100 10 -212 l3 -204 595 0 594 0 0 1153 c-1 1635 -14 2157 -61
2436 -49 293 -178 535 -394 739 -264 250 -626 409 -1030 452 -129 14 -792 22
-870 10z m1089 -2617 c13 -64 18 -394 7 -508 -29 -316 -148 -547 -364 -711
-227 -172 -602 -243 -906 -173 -248 57 -364 220 -348 484 11 163 68 289 183
401 134 132 243 179 701 309 382 109 580 170 643 199 69 32 76 32 84 -1z"/>
<path d="M18850 9573 c-84 -6 -334 -44 -425 -64 -303 -67 -595 -185 -810 -326
-535 -353 -961 -1013 -1041 -1612 -34 -257 -28 -707 12 -946 38 -225 199 -604
361 -850 281 -425 608 -711 1038 -907 206 -94 354 -143 530 -173 146 -25 489
-37 755 -26 208 9 248 13 350 39 463 119 908 374 1225 703 373 387 599 857
677 1409 19 141 17 516 -5 660 -73 477 -227 833 -504 1167 -94 114 -360 377
-450 446 -139 106 -369 230 -603 325 -220 89 -384 129 -615 152 -93 9 -392 11
-495 3z m410 -1138 c233 -47 439 -163 631 -354 203 -204 322 -429 380 -720 27
-138 29 -363 5 -506 -63 -362 -256 -660 -560 -863 -238 -159 -360 -199 -636
-208 -254 -9 -419 26 -588 125 -361 211 -616 579 -686 990 -22 133 -21 344 3
469 90 466 410 862 832 1031 121 49 210 61 389 56 85 -3 189 -11 230 -20z"/>
<path d="M4082 9560 c-212 -27 -537 -136 -762 -257 -264 -142 -515 -347 -708
-578 -281 -335 -463 -801 -518 -1323 -21 -195 -14 -511 16 -706 40 -265 124
-539 234 -772 114 -237 241 -411 465 -634 385 -383 749 -565 1271 -636 174
-24 578 -24 750 0 505 69 869 243 1224 586 325 314 474 574 580 1013 19 78 37
157 41 175 l7 32 -666 0 -666 0 -10 -22 c-5 -13 -19 -59 -30 -103 -65 -250
-309 -486 -582 -566 -112 -32 -323 -37 -445 -10 -258 57 -473 198 -629 411
-187 255 -259 525 -258 955 1 242 20 377 79 553 130 387 410 668 762 764 112
30 334 30 448 -1 166 -44 321 -136 435 -258 82 -86 123 -148 196 -295 l59
-118 637 0 c351 0 638 1 638 3 0 1 -15 61 -34 132 -167 644 -580 1170 -1144
1459 -202 103 -354 152 -562 181 -135 19 -710 29 -828 15z"/>
<path d="M16105 9539 c-195 -23 -399 -103 -551 -217 -100 -74 -223 -204 -296
-313 -53 -80 -155 -273 -209 -399 l-24 -55 -5 465 -5 465 -622 3 -623 2 0
-2355 0 -2355 654 0 654 0 6 878 c7 988 21 1653 36 1757 29 201 148 422 313
582 98 95 178 150 303 210 144 68 180 73 562 73 l332 0 0 615 0 615 -22 5
c-13 3 -43 10 -68 15 -63 15 -339 21 -435 9z"/>
<path d="M22160 6325 c-278 -62 -508 -268 -601 -538 -111 -321 -8 -689 249
-893 75 -59 217 -129 317 -156 117 -31 317 -31 434 0 365 98 593 397 593 777
0 146 -27 258 -94 395 -45 91 -64 117 -142 195 -108 108 -205 163 -354 201
-123 32 -306 41 -402 19z"/>
<path d="M2430 2520 l0 -670 10000 0 10000 0 0 670 0 670 -10000 0 -10000 0 0
-670z"/>
</g>
</svg>
